<svg xmlns="http://www.w3.org/2000/svg" version="1.1" xmlns:xlink="http://www.w3.org/1999/xlink" xmlns:svgjs="http://svgjs.com/svgjs" width="1920" height="1080" preserveAspectRatio="none" viewBox="0 0 1920 1080"><g mask="url(&quot;#SvgjsMask1008&quot;)" fill="none"><rect width="1920" height="1080" x="0" y="0" fill="#0e2a47"></rect><path d="M81.13 67.54L146.09 105.04L146.09 180.04L81.13 217.54L16.18 180.04L16.18 105.04zM81.13 292.54L146.09 330.04L146.09 405.04L81.13 442.54L16.18 405.04L16.18 330.04zM81.13 967.54L146.09 1005.04L146.09 1080.04L81.13 1117.54L16.18 1080.04L16.18 1005.04zM16.18 1080.04L81.13 1117.54L81.13 1192.54L16.18 1230.04L-48.77 1192.54L-48.77 1117.54zM211.04 292.54L276 330.04L276 405.04L211.04 442.54L146.09 405.04L146.09 330.04zM146.09 630.04L211.04 667.54L211.04 742.54L146.09 780.04L81.13 742.54L81.13 667.54zM211.04 742.54L276 780.04L276 855.04L211.04 892.54L146.09 855.04L146.09 780.04zM146.09 855.04L211.04 892.54L211.04 967.54L146.09 1005.04L81.13 967.54L81.13 892.54zM211.04 967.54L276 1005.04L276 1080.04L211.04 1117.54L146.09 1080.04L146.09 1005.04zM276 180.04L340.95 217.54L340.95 292.54L276 330.04L211.04 292.54L211.04 217.54zM340.95 742.54L405.9 780.04L405.9 855.04L340.95 892.54L276 855.04L276 780.04zM340.95 967.54L405.9 1005.04L405.9 1080.04L340.95 1117.54L276 1080.04L276 1005.04zM276 1080.04L340.95 1117.54L340.95 1192.54L276 1230.04L211.04 1192.54L211.04 1117.54zM405.9 180.04L470.86 217.54L470.86 292.54L405.9 330.04L340.95 292.54L340.95 217.54zM405.9 855.04L470.86 892.54L470.86 967.54L405.9 1005.04L340.95 967.54L340.95 892.54zM600.76 742.54L665.72 780.04L665.72 855.04L600.76 892.54L535.81 855.04L535.81 780.04zM535.81 855.04L600.76 892.54L600.76 967.54L535.81 1005.04L470.86 967.54L470.86 892.54zM600.76 967.54L665.72 1005.04L665.72 1080.04L600.76 1117.54L535.81 1080.04L535.81 1005.04zM665.72 -44.96L730.67 -7.46L730.67 67.54L665.72 105.04L600.76 67.54L600.76 -7.46zM730.67 67.54L795.63 105.04L795.63 180.04L730.67 217.54L665.72 180.04L665.72 105.04zM730.67 292.54L795.63 330.04L795.63 405.04L730.67 442.54L665.72 405.04L665.72 330.04zM795.62 -44.96L860.58 -7.46L860.58 67.54L795.62 105.04L730.67 67.54L730.67 -7.46zM860.58 67.54L925.53 105.04L925.53 180.04L860.58 217.54L795.62 180.04L795.62 105.04zM795.62 405.04L860.58 442.54L860.58 517.54L795.62 555.04L730.67 517.54L730.67 442.54zM860.58 517.54L925.53 555.04L925.53 630.04L860.58 667.54L795.62 630.04L795.62 555.04zM795.62 630.04L860.58 667.54L860.58 742.54L795.62 780.04L730.67 742.54L730.67 667.54zM860.58 742.54L925.53 780.04L925.53 855.04L860.58 892.54L795.62 855.04L795.62 780.04zM990.49 292.54L1055.44 330.04L1055.44 405.04L990.49 442.54L925.53 405.04L925.53 330.04zM925.53 630.04L990.49 667.54L990.49 742.54L925.53 780.04L860.58 742.54L860.58 667.54zM990.49 967.54L1055.44 1005.04L1055.44 1080.04L990.49 1117.54L925.53 1080.04L925.53 1005.04zM925.53 1080.04L990.49 1117.54L990.49 1192.54L925.53 1230.04L860.58 1192.54L860.58 1117.54zM1055.44 1080.04L1120.39 1117.54L1120.39 1192.54L1055.44 1230.04L990.49 1192.54L990.49 1117.54zM1250.3 67.54L1315.25 105.04L1315.25 180.04L1250.3 217.54L1185.35 180.04L1185.35 105.04zM1250.3 517.54L1315.25 555.04L1315.25 630.04L1250.3 667.54L1185.35 630.04L1185.35 555.04zM1185.35 630.04L1250.3 667.54L1250.3 742.54L1185.35 780.04L1120.39 742.54L1120.39 667.54zM1380.21 67.54L1445.16 105.04L1445.16 180.04L1380.21 217.54L1315.26 180.04L1315.26 105.04zM1380.21 292.54L1445.16 330.04L1445.16 405.04L1380.21 442.54L1315.26 405.04L1315.26 330.04zM1315.26 405.04L1380.21 442.54L1380.21 517.54L1315.26 555.04L1250.3 517.54L1250.3 442.54zM1315.26 630.04L1380.21 667.54L1380.21 742.54L1315.26 780.04L1250.3 742.54L1250.3 667.54zM1315.26 1080.04L1380.21 1117.54L1380.21 1192.54L1315.26 1230.04L1250.3 1192.54L1250.3 1117.54zM1445.16 855.04L1510.12 892.54L1510.12 967.54L1445.16 1005.04L1380.21 967.54L1380.21 892.54zM1575.07 -44.96L1640.02 -7.46L1640.02 67.54L1575.07 105.04L1510.12 67.54L1510.12 -7.46zM1575.07 405.04L1640.02 442.54L1640.02 517.54L1575.07 555.04L1510.12 517.54L1510.12 442.54zM1640.02 517.54L1704.98 555.04L1704.98 630.04L1640.02 667.54L1575.07 630.04L1575.07 555.04zM1575.07 855.04L1640.02 892.54L1640.02 967.54L1575.07 1005.04L1510.12 967.54L1510.12 892.54zM1704.98 180.04L1769.93 217.54L1769.93 292.54L1704.98 330.04L1640.02 292.54L1640.02 217.54zM1899.84 292.54L1964.79 330.04L1964.79 405.04L1899.84 442.54L1834.88 405.04L1834.88 330.04zM1834.88 405.04L1899.84 442.54L1899.84 517.54L1834.88 555.04L1769.93 517.54L1769.93 442.54z" stroke="#03305d" stroke-width="2"></path><path d="M73.63 67.54 a7.5 7.5 0 1 0 15 0 a7.5 7.5 0 1 0 -15 0zM138.59 105.04 a7.5 7.5 0 1 0 15 0 a7.5 7.5 0 1 0 -15 0zM138.59 180.04 a7.5 7.5 0 1 0 15 0 a7.5 7.5 0 1 0 -15 0zM73.63 217.54 a7.5 7.5 0 1 0 15 0 a7.5 7.5 0 1 0 -15 0zM8.68 180.04 a7.5 7.5 0 1 0 15 0 a7.5 7.5 0 1 0 -15 0zM8.68 105.04 a7.5 7.5 0 1 0 15 0 a7.5 7.5 0 1 0 -15 0zM73.63 292.54 a7.5 7.5 0 1 0 15 0 a7.5 7.5 0 1 0 -15 0zM138.59 330.04 a7.5 7.5 0 1 0 15 0 a7.5 7.5 0 1 0 -15 0zM138.59 405.04 a7.5 7.5 0 1 0 15 0 a7.5 7.5 0 1 0 -15 0zM73.63 442.54 a7.5 7.5 0 1 0 15 0 a7.5 7.5 0 1 0 -15 0zM8.68 405.04 a7.5 7.5 0 1 0 15 0 a7.5 7.5 0 1 0 -15 0zM8.68 330.04 a7.5 7.5 0 1 0 15 0 a7.5 7.5 0 1 0 -15 0zM73.63 967.54 a7.5 7.5 0 1 0 15 0 a7.5 7.5 0 1 0 -15 0zM138.59 1005.04 a7.5 7.5 0 1 0 15 0 a7.5 7.5 0 1 0 -15 0zM138.59 1080.04 a7.5 7.5 0 1 0 15 0 a7.5 7.5 0 1 0 -15 0zM73.63 1117.54 a7.5 7.5 0 1 0 15 0 a7.5 7.5 0 1 0 -15 0zM8.68 1080.04 a7.5 7.5 0 1 0 15 0 a7.5 7.5 0 1 0 -15 0zM8.68 1005.04 a7.5 7.5 0 1 0 15 0 a7.5 7.5 0 1 0 -15 0zM73.63 1192.54 a7.5 7.5 0 1 0 15 0 a7.5 7.5 0 1 0 -15 0zM8.68 1230.04 a7.5 7.5 0 1 0 15 0 a7.5 7.5 0 1 0 -15 0zM-56.27 1192.54 a7.5 7.5 0 1 0 15 0 a7.5 7.5 0 1 0 -15 0zM-56.27 1117.54 a7.5 7.5 0 1 0 15 0 a7.5 7.5 0 1 0 -15 0zM203.54 292.54 a7.5 7.5 0 1 0 15 0 a7.5 7.5 0 1 0 -15 0zM268.5 330.04 a7.5 7.5 0 1 0 15 0 a7.5 7.5 0 1 0 -15 0zM268.5 405.04 a7.5 7.5 0 1 0 15 0 a7.5 7.5 0 1 0 -15 0zM203.54 442.54 a7.5 7.5 0 1 0 15 0 a7.5 7.5 0 1 0 -15 0zM138.59 630.04 a7.5 7.5 0 1 0 15 0 a7.5 7.5 0 1 0 -15 0zM203.54 667.54 a7.5 7.5 0 1 0 15 0 a7.5 7.5 0 1 0 -15 0zM203.54 742.54 a7.5 7.5 0 1 0 15 0 a7.5 7.5 0 1 0 -15 0zM138.59 780.04 a7.5 7.5 0 1 0 15 0 a7.5 7.5 0 1 0 -15 0zM73.63 742.54 a7.5 7.5 0 1 0 15 0 a7.5 7.5 0 1 0 -15 0zM73.63 667.54 a7.5 7.5 0 1 0 15 0 a7.5 7.5 0 1 0 -15 0zM268.5 780.04 a7.5 7.5 0 1 0 15 0 a7.5 7.5 0 1 0 -15 0zM268.5 855.04 a7.5 7.5 0 1 0 15 0 a7.5 7.5 0 1 0 -15 0zM203.54 892.54 a7.5 7.5 0 1 0 15 0 a7.5 7.5 0 1 0 -15 0zM138.59 855.04 a7.5 7.5 0 1 0 15 0 a7.5 7.5 0 1 0 -15 0zM203.54 967.54 a7.5 7.5 0 1 0 15 0 a7.5 7.5 0 1 0 -15 0zM73.63 892.54 a7.5 7.5 0 1 0 15 0 a7.5 7.5 0 1 0 -15 0zM268.5 1005.04 a7.5 7.5 0 1 0 15 0 a7.5 7.5 0 1 0 -15 0zM268.5 1080.04 a7.5 7.5 0 1 0 15 0 a7.5 7.5 0 1 0 -15 0zM203.54 1117.54 a7.5 7.5 0 1 0 15 0 a7.5 7.5 0 1 0 -15 0zM268.5 180.04 a7.5 7.5 0 1 0 15 0 a7.5 7.5 0 1 0 -15 0zM333.45 217.54 a7.5 7.5 0 1 0 15 0 a7.5 7.5 0 1 0 -15 0zM333.45 292.54 a7.5 7.5 0 1 0 15 0 a7.5 7.5 0 1 0 -15 0zM203.54 217.54 a7.5 7.5 0 1 0 15 0 a7.5 7.5 0 1 0 -15 0zM333.45 742.54 a7.5 7.5 0 1 0 15 0 a7.5 7.5 0 1 0 -15 0zM398.4 780.04 a7.5 7.5 0 1 0 15 0 a7.5 7.5 0 1 0 -15 0zM398.4 855.04 a7.5 7.5 0 1 0 15 0 a7.5 7.5 0 1 0 -15 0zM333.45 892.54 a7.5 7.5 0 1 0 15 0 a7.5 7.5 0 1 0 -15 0zM333.45 967.54 a7.5 7.5 0 1 0 15 0 a7.5 7.5 0 1 0 -15 0zM398.4 1005.04 a7.5 7.5 0 1 0 15 0 a7.5 7.5 0 1 0 -15 0zM398.4 1080.04 a7.5 7.5 0 1 0 15 0 a7.5 7.5 0 1 0 -15 0zM333.45 1117.54 a7.5 7.5 0 1 0 15 0 a7.5 7.5 0 1 0 -15 0zM333.45 1192.54 a7.5 7.5 0 1 0 15 0 a7.5 7.5 0 1 0 -15 0zM268.5 1230.04 a7.5 7.5 0 1 0 15 0 a7.5 7.5 0 1 0 -15 0zM203.54 1192.54 a7.5 7.5 0 1 0 15 0 a7.5 7.5 0 1 0 -15 0zM398.4 180.04 a7.5 7.5 0 1 0 15 0 a7.5 7.5 0 1 0 -15 0zM463.36 217.54 a7.5 7.5 0 1 0 15 0 a7.5 7.5 0 1 0 -15 0zM463.36 292.54 a7.5 7.5 0 1 0 15 0 a7.5 7.5 0 1 0 -15 0zM398.4 330.04 a7.5 7.5 0 1 0 15 0 a7.5 7.5 0 1 0 -15 0zM463.36 892.54 a7.5 7.5 0 1 0 15 0 a7.5 7.5 0 1 0 -15 0zM463.36 967.54 a7.5 7.5 0 1 0 15 0 a7.5 7.5 0 1 0 -15 0zM593.26 742.54 a7.5 7.5 0 1 0 15 0 a7.5 7.5 0 1 0 -15 0zM658.22 780.04 a7.5 7.5 0 1 0 15 0 a7.5 7.5 0 1 0 -15 0zM658.22 855.04 a7.5 7.5 0 1 0 15 0 a7.5 7.5 0 1 0 -15 0zM593.26 892.54 a7.5 7.5 0 1 0 15 0 a7.5 7.5 0 1 0 -15 0zM528.31 855.04 a7.5 7.5 0 1 0 15 0 a7.5 7.5 0 1 0 -15 0zM528.31 780.04 a7.5 7.5 0 1 0 15 0 a7.5 7.5 0 1 0 -15 0zM593.26 967.54 a7.5 7.5 0 1 0 15 0 a7.5 7.5 0 1 0 -15 0zM528.31 1005.04 a7.5 7.5 0 1 0 15 0 a7.5 7.5 0 1 0 -15 0zM658.22 1005.04 a7.5 7.5 0 1 0 15 0 a7.5 7.5 0 1 0 -15 0zM658.22 1080.04 a7.5 7.5 0 1 0 15 0 a7.5 7.5 0 1 0 -15 0zM593.26 1117.54 a7.5 7.5 0 1 0 15 0 a7.5 7.5 0 1 0 -15 0zM528.31 1080.04 a7.5 7.5 0 1 0 15 0 a7.5 7.5 0 1 0 -15 0zM658.22 -44.96 a7.5 7.5 0 1 0 15 0 a7.5 7.5 0 1 0 -15 0zM723.17 -7.46 a7.5 7.5 0 1 0 15 0 a7.5 7.5 0 1 0 -15 0zM723.17 67.54 a7.5 7.5 0 1 0 15 0 a7.5 7.5 0 1 0 -15 0zM658.22 105.04 a7.5 7.5 0 1 0 15 0 a7.5 7.5 0 1 0 -15 0zM593.26 67.54 a7.5 7.5 0 1 0 15 0 a7.5 7.5 0 1 0 -15 0zM593.26 -7.46 a7.5 7.5 0 1 0 15 0 a7.5 7.5 0 1 0 -15 0zM788.13 105.04 a7.5 7.5 0 1 0 15 0 a7.5 7.5 0 1 0 -15 0zM788.13 180.04 a7.5 7.5 0 1 0 15 0 a7.5 7.5 0 1 0 -15 0zM723.17 217.54 a7.5 7.5 0 1 0 15 0 a7.5 7.5 0 1 0 -15 0zM658.22 180.04 a7.5 7.5 0 1 0 15 0 a7.5 7.5 0 1 0 -15 0zM723.17 292.54 a7.5 7.5 0 1 0 15 0 a7.5 7.5 0 1 0 -15 0zM788.13 330.04 a7.5 7.5 0 1 0 15 0 a7.5 7.5 0 1 0 -15 0zM788.13 405.04 a7.5 7.5 0 1 0 15 0 a7.5 7.5 0 1 0 -15 0zM723.17 442.54 a7.5 7.5 0 1 0 15 0 a7.5 7.5 0 1 0 -15 0zM658.22 405.04 a7.5 7.5 0 1 0 15 0 a7.5 7.5 0 1 0 -15 0zM658.22 330.04 a7.5 7.5 0 1 0 15 0 a7.5 7.5 0 1 0 -15 0zM788.12 -44.96 a7.5 7.5 0 1 0 15 0 a7.5 7.5 0 1 0 -15 0zM853.08 -7.46 a7.5 7.5 0 1 0 15 0 a7.5 7.5 0 1 0 -15 0zM853.08 67.54 a7.5 7.5 0 1 0 15 0 a7.5 7.5 0 1 0 -15 0zM788.12 105.04 a7.5 7.5 0 1 0 15 0 a7.5 7.5 0 1 0 -15 0zM918.03 105.04 a7.5 7.5 0 1 0 15 0 a7.5 7.5 0 1 0 -15 0zM918.03 180.04 a7.5 7.5 0 1 0 15 0 a7.5 7.5 0 1 0 -15 0zM853.08 217.54 a7.5 7.5 0 1 0 15 0 a7.5 7.5 0 1 0 -15 0zM788.12 180.04 a7.5 7.5 0 1 0 15 0 a7.5 7.5 0 1 0 -15 0zM788.12 405.04 a7.5 7.5 0 1 0 15 0 a7.5 7.5 0 1 0 -15 0zM853.08 442.54 a7.5 7.5 0 1 0 15 0 a7.5 7.5 0 1 0 -15 0zM853.08 517.54 a7.5 7.5 0 1 0 15 0 a7.5 7.5 0 1 0 -15 0zM788.12 555.04 a7.5 7.5 0 1 0 15 0 a7.5 7.5 0 1 0 -15 0zM723.17 517.54 a7.5 7.5 0 1 0 15 0 a7.5 7.5 0 1 0 -15 0zM918.03 555.04 a7.5 7.5 0 1 0 15 0 a7.5 7.5 0 1 0 -15 0zM918.03 630.04 a7.5 7.5 0 1 0 15 0 a7.5 7.5 0 1 0 -15 0zM853.08 667.54 a7.5 7.5 0 1 0 15 0 a7.5 7.5 0 1 0 -15 0zM788.12 630.04 a7.5 7.5 0 1 0 15 0 a7.5 7.5 0 1 0 -15 0zM853.08 742.54 a7.5 7.5 0 1 0 15 0 a7.5 7.5 0 1 0 -15 0zM788.12 780.04 a7.5 7.5 0 1 0 15 0 a7.5 7.5 0 1 0 -15 0zM723.17 742.54 a7.5 7.5 0 1 0 15 0 a7.5 7.5 0 1 0 -15 0zM723.17 667.54 a7.5 7.5 0 1 0 15 0 a7.5 7.5 0 1 0 -15 0zM918.03 780.04 a7.5 7.5 0 1 0 15 0 a7.5 7.5 0 1 0 -15 0zM918.03 855.04 a7.5 7.5 0 1 0 15 0 a7.5 7.5 0 1 0 -15 0zM853.08 892.54 a7.5 7.5 0 1 0 15 0 a7.5 7.5 0 1 0 -15 0zM788.12 855.04 a7.5 7.5 0 1 0 15 0 a7.5 7.5 0 1 0 -15 0zM982.99 292.54 a7.5 7.5 0 1 0 15 0 a7.5 7.5 0 1 0 -15 0zM1047.94 330.04 a7.5 7.5 0 1 0 15 0 a7.5 7.5 0 1 0 -15 0zM1047.94 405.04 a7.5 7.5 0 1 0 15 0 a7.5 7.5 0 1 0 -15 0zM982.99 442.54 a7.5 7.5 0 1 0 15 0 a7.5 7.5 0 1 0 -15 0zM918.03 405.04 a7.5 7.5 0 1 0 15 0 a7.5 7.5 0 1 0 -15 0zM918.03 330.04 a7.5 7.5 0 1 0 15 0 a7.5 7.5 0 1 0 -15 0zM982.99 667.54 a7.5 7.5 0 1 0 15 0 a7.5 7.5 0 1 0 -15 0zM982.99 742.54 a7.5 7.5 0 1 0 15 0 a7.5 7.5 0 1 0 -15 0zM982.99 967.54 a7.5 7.5 0 1 0 15 0 a7.5 7.5 0 1 0 -15 0zM1047.94 1005.04 a7.5 7.5 0 1 0 15 0 a7.5 7.5 0 1 0 -15 0zM1047.94 1080.04 a7.5 7.5 0 1 0 15 0 a7.5 7.5 0 1 0 -15 0zM982.99 1117.54 a7.5 7.5 0 1 0 15 0 a7.5 7.5 0 1 0 -15 0zM918.03 1080.04 a7.5 7.5 0 1 0 15 0 a7.5 7.5 0 1 0 -15 0zM918.03 1005.04 a7.5 7.5 0 1 0 15 0 a7.5 7.5 0 1 0 -15 0zM982.99 1192.54 a7.5 7.5 0 1 0 15 0 a7.5 7.5 0 1 0 -15 0zM918.03 1230.04 a7.5 7.5 0 1 0 15 0 a7.5 7.5 0 1 0 -15 0zM853.08 1192.54 a7.5 7.5 0 1 0 15 0 a7.5 7.5 0 1 0 -15 0zM853.08 1117.54 a7.5 7.5 0 1 0 15 0 a7.5 7.5 0 1 0 -15 0zM1112.89 1117.54 a7.5 7.5 0 1 0 15 0 a7.5 7.5 0 1 0 -15 0zM1112.89 1192.54 a7.5 7.5 0 1 0 15 0 a7.5 7.5 0 1 0 -15 0zM1047.94 1230.04 a7.5 7.5 0 1 0 15 0 a7.5 7.5 0 1 0 -15 0zM1242.8 67.54 a7.5 7.5 0 1 0 15 0 a7.5 7.5 0 1 0 -15 0zM1307.75 105.04 a7.5 7.5 0 1 0 15 0 a7.5 7.5 0 1 0 -15 0zM1307.75 180.04 a7.5 7.5 0 1 0 15 0 a7.5 7.5 0 1 0 -15 0zM1242.8 217.54 a7.5 7.5 0 1 0 15 0 a7.5 7.5 0 1 0 -15 0zM1177.85 180.04 a7.5 7.5 0 1 0 15 0 a7.5 7.5 0 1 0 -15 0zM1177.85 105.04 a7.5 7.5 0 1 0 15 0 a7.5 7.5 0 1 0 -15 0zM1242.8 517.54 a7.5 7.5 0 1 0 15 0 a7.5 7.5 0 1 0 -15 0zM1307.75 555.04 a7.5 7.5 0 1 0 15 0 a7.5 7.5 0 1 0 -15 0zM1307.75 630.04 a7.5 7.5 0 1 0 15 0 a7.5 7.5 0 1 0 -15 0zM1242.8 667.54 a7.5 7.5 0 1 0 15 0 a7.5 7.5 0 1 0 -15 0zM1177.85 630.04 a7.5 7.5 0 1 0 15 0 a7.5 7.5 0 1 0 -15 0zM1177.85 555.04 a7.5 7.5 0 1 0 15 0 a7.5 7.5 0 1 0 -15 0zM1242.8 742.54 a7.5 7.5 0 1 0 15 0 a7.5 7.5 0 1 0 -15 0zM1177.85 780.04 a7.5 7.5 0 1 0 15 0 a7.5 7.5 0 1 0 -15 0zM1112.89 742.54 a7.5 7.5 0 1 0 15 0 a7.5 7.5 0 1 0 -15 0zM1112.89 667.54 a7.5 7.5 0 1 0 15 0 a7.5 7.5 0 1 0 -15 0zM1372.71 67.54 a7.5 7.5 0 1 0 15 0 a7.5 7.5 0 1 0 -15 0zM1437.66 105.04 a7.5 7.5 0 1 0 15 0 a7.5 7.5 0 1 0 -15 0zM1437.66 180.04 a7.5 7.5 0 1 0 15 0 a7.5 7.5 0 1 0 -15 0zM1372.71 217.54 a7.5 7.5 0 1 0 15 0 a7.5 7.5 0 1 0 -15 0zM1307.76 180.04 a7.5 7.5 0 1 0 15 0 a7.5 7.5 0 1 0 -15 0zM1307.76 105.04 a7.5 7.5 0 1 0 15 0 a7.5 7.5 0 1 0 -15 0zM1372.71 292.54 a7.5 7.5 0 1 0 15 0 a7.5 7.5 0 1 0 -15 0zM1437.66 330.04 a7.5 7.5 0 1 0 15 0 a7.5 7.5 0 1 0 -15 0zM1437.66 405.04 a7.5 7.5 0 1 0 15 0 a7.5 7.5 0 1 0 -15 0zM1372.71 442.54 a7.5 7.5 0 1 0 15 0 a7.5 7.5 0 1 0 -15 0zM1307.76 405.04 a7.5 7.5 0 1 0 15 0 a7.5 7.5 0 1 0 -15 0zM1307.76 330.04 a7.5 7.5 0 1 0 15 0 a7.5 7.5 0 1 0 -15 0zM1372.71 517.54 a7.5 7.5 0 1 0 15 0 a7.5 7.5 0 1 0 -15 0zM1307.76 555.04 a7.5 7.5 0 1 0 15 0 a7.5 7.5 0 1 0 -15 0zM1242.8 442.54 a7.5 7.5 0 1 0 15 0 a7.5 7.5 0 1 0 -15 0zM1307.76 630.04 a7.5 7.5 0 1 0 15 0 a7.5 7.5 0 1 0 -15 0zM1372.71 667.54 a7.5 7.5 0 1 0 15 0 a7.5 7.5 0 1 0 -15 0zM1372.71 742.54 a7.5 7.5 0 1 0 15 0 a7.5 7.5 0 1 0 -15 0zM1307.76 780.04 a7.5 7.5 0 1 0 15 0 a7.5 7.5 0 1 0 -15 0zM1307.76 1080.04 a7.5 7.5 0 1 0 15 0 a7.5 7.5 0 1 0 -15 0zM1372.71 1117.54 a7.5 7.5 0 1 0 15 0 a7.5 7.5 0 1 0 -15 0zM1372.71 1192.54 a7.5 7.5 0 1 0 15 0 a7.5 7.5 0 1 0 -15 0zM1307.76 1230.04 a7.5 7.5 0 1 0 15 0 a7.5 7.5 0 1 0 -15 0zM1242.8 1192.54 a7.5 7.5 0 1 0 15 0 a7.5 7.5 0 1 0 -15 0zM1242.8 1117.54 a7.5 7.5 0 1 0 15 0 a7.5 7.5 0 1 0 -15 0zM1437.66 855.04 a7.5 7.5 0 1 0 15 0 a7.5 7.5 0 1 0 -15 0zM1502.62 892.54 a7.5 7.5 0 1 0 15 0 a7.5 7.5 0 1 0 -15 0zM1502.62 967.54 a7.5 7.5 0 1 0 15 0 a7.5 7.5 0 1 0 -15 0zM1437.66 1005.04 a7.5 7.5 0 1 0 15 0 a7.5 7.5 0 1 0 -15 0zM1372.71 967.54 a7.5 7.5 0 1 0 15 0 a7.5 7.5 0 1 0 -15 0zM1372.71 892.54 a7.5 7.5 0 1 0 15 0 a7.5 7.5 0 1 0 -15 0zM1567.57 -44.96 a7.5 7.5 0 1 0 15 0 a7.5 7.5 0 1 0 -15 0zM1632.52 -7.46 a7.5 7.5 0 1 0 15 0 a7.5 7.5 0 1 0 -15 0zM1632.52 67.54 a7.5 7.5 0 1 0 15 0 a7.5 7.5 0 1 0 -15 0zM1567.57 105.04 a7.5 7.5 0 1 0 15 0 a7.5 7.5 0 1 0 -15 0zM1502.62 67.54 a7.5 7.5 0 1 0 15 0 a7.5 7.5 0 1 0 -15 0zM1502.62 -7.46 a7.5 7.5 0 1 0 15 0 a7.5 7.5 0 1 0 -15 0zM1567.57 405.04 a7.5 7.5 0 1 0 15 0 a7.5 7.5 0 1 0 -15 0zM1632.52 442.54 a7.5 7.5 0 1 0 15 0 a7.5 7.5 0 1 0 -15 0zM1632.52 517.54 a7.5 7.5 0 1 0 15 0 a7.5 7.5 0 1 0 -15 0zM1567.57 555.04 a7.5 7.5 0 1 0 15 0 a7.5 7.5 0 1 0 -15 0zM1502.62 517.54 a7.5 7.5 0 1 0 15 0 a7.5 7.5 0 1 0 -15 0zM1502.62 442.54 a7.5 7.5 0 1 0 15 0 a7.5 7.5 0 1 0 -15 0zM1697.48 555.04 a7.5 7.5 0 1 0 15 0 a7.5 7.5 0 1 0 -15 0zM1697.48 630.04 a7.5 7.5 0 1 0 15 0 a7.5 7.5 0 1 0 -15 0zM1632.52 667.54 a7.5 7.5 0 1 0 15 0 a7.5 7.5 0 1 0 -15 0zM1567.57 630.04 a7.5 7.5 0 1 0 15 0 a7.5 7.5 0 1 0 -15 0zM1567.57 855.04 a7.5 7.5 0 1 0 15 0 a7.5 7.5 0 1 0 -15 0zM1632.52 892.54 a7.5 7.5 0 1 0 15 0 a7.5 7.5 0 1 0 -15 0zM1632.52 967.54 a7.5 7.5 0 1 0 15 0 a7.5 7.5 0 1 0 -15 0zM1567.57 1005.04 a7.5 7.5 0 1 0 15 0 a7.5 7.5 0 1 0 -15 0zM1697.48 180.04 a7.5 7.5 0 1 0 15 0 a7.5 7.5 0 1 0 -15 0zM1762.43 217.54 a7.5 7.5 0 1 0 15 0 a7.5 7.5 0 1 0 -15 0zM1762.43 292.54 a7.5 7.5 0 1 0 15 0 a7.5 7.5 0 1 0 -15 0zM1697.48 330.04 a7.5 7.5 0 1 0 15 0 a7.5 7.5 0 1 0 -15 0zM1632.52 292.54 a7.5 7.5 0 1 0 15 0 a7.5 7.5 0 1 0 -15 0zM1632.52 217.54 a7.5 7.5 0 1 0 15 0 a7.5 7.5 0 1 0 -15 0zM1892.34 292.54 a7.5 7.5 0 1 0 15 0 a7.5 7.5 0 1 0 -15 0zM1957.29 330.04 a7.5 7.5 0 1 0 15 0 a7.5 7.5 0 1 0 -15 0zM1957.29 405.04 a7.5 7.5 0 1 0 15 0 a7.5 7.5 0 1 0 -15 0zM1892.34 442.54 a7.5 7.5 0 1 0 15 0 a7.5 7.5 0 1 0 -15 0zM1827.38 405.04 a7.5 7.5 0 1 0 15 0 a7.5 7.5 0 1 0 -15 0zM1827.38 330.04 a7.5 7.5 0 1 0 15 0 a7.5 7.5 0 1 0 -15 0zM1892.34 517.54 a7.5 7.5 0 1 0 15 0 a7.5 7.5 0 1 0 -15 0zM1827.38 555.04 a7.5 7.5 0 1 0 15 0 a7.5 7.5 0 1 0 -15 0zM1762.43 517.54 a7.5 7.5 0 1 0 15 0 a7.5 7.5 0 1 0 -15 0zM1762.43 442.54 a7.5 7.5 0 1 0 15 0 a7.5 7.5 0 1 0 -15 0z" fill="#03305d"></path><path d="M43.69 41.79L87 66.79L87 116.79L43.69 141.79L0.39 116.79L0.39 66.79zM43.69 191.79L87 216.79L87 266.79L43.69 291.79L0.39 266.79L0.39 216.79zM43.69 341.79L87 366.79L87 416.79L43.69 441.79L0.39 416.79L0.39 366.79zM0.39 416.79L43.69 441.79L43.69 491.79L0.39 516.79L-42.91 491.79L-42.91 441.79zM0.39 566.79L43.69 591.79L43.69 641.79L0.39 666.79L-42.91 641.79L-42.91 591.79zM43.69 791.79L87 816.79L87 866.79L43.69 891.79L0.39 866.79L0.39 816.79zM0.39 866.79L43.69 891.79L43.69 941.79L0.39 966.79L-42.91 941.79L-42.91 891.79zM43.69 941.79L87 966.79L87 1016.79L43.69 1041.79L0.39 1016.79L0.39 966.79zM0.39 1016.79L43.69 1041.79L43.69 1091.79L0.39 1116.79L-42.91 1091.79L-42.91 1041.79zM87 -33.21L130.3 -8.21L130.3 41.79L87 66.79L43.69 41.79L43.69 -8.21zM130.3 41.79L173.6 66.79L173.6 116.79L130.3 141.79L87 116.79L87 66.79zM87 116.79L130.3 141.79L130.3 191.79L87 216.79L43.69 191.79L43.69 141.79zM130.3 341.79L173.6 366.79L173.6 416.79L130.3 441.79L87 416.79L87 366.79zM130.3 491.79L173.6 516.79L173.6 566.79L130.3 591.79L87 566.79L87 516.79zM130.3 641.79L173.6 666.79L173.6 716.79L130.3 741.79L87 716.79L87 666.79zM130.3 791.79L173.6 816.79L173.6 866.79L130.3 891.79L87 866.79L87 816.79zM87 866.79L130.3 891.79L130.3 941.79L87 966.79L43.69 941.79L43.69 891.79zM130.3 941.79L173.6 966.79L173.6 1016.79L130.3 1041.79L87 1016.79L87 966.79zM87 1016.79L130.3 1041.79L130.3 1091.79L87 1116.79L43.69 1091.79L43.69 1041.79zM173.6 -33.21L216.9 -8.21L216.9 41.79L173.6 66.79L130.3 41.79L130.3 -8.21zM216.9 41.79L260.2 66.79L260.2 116.79L216.9 141.79L173.6 116.79L173.6 66.79zM173.6 116.79L216.9 141.79L216.9 191.79L173.6 216.79L130.3 191.79L130.3 141.79zM173.6 266.79L216.9 291.79L216.9 341.79L173.6 366.79L130.3 341.79L130.3 291.79zM216.9 341.79L260.2 366.79L260.2 416.79L216.9 441.79L173.6 416.79L173.6 366.79zM173.6 416.79L216.9 441.79L216.9 491.79L173.6 516.79L130.3 491.79L130.3 441.79zM173.6 566.79L216.9 591.79L216.9 641.79L173.6 666.79L130.3 641.79L130.3 591.79zM216.9 641.79L260.2 666.79L260.2 716.79L216.9 741.79L173.6 716.79L173.6 666.79zM173.6 716.79L216.9 741.79L216.9 791.79L173.6 816.79L130.3 791.79L130.3 741.79zM216.9 791.79L260.2 816.79L260.2 866.79L216.9 891.79L173.6 866.79L173.6 816.79zM173.6 1016.79L216.9 1041.79L216.9 1091.79L173.6 1116.79L130.3 1091.79L130.3 1041.79zM260.2 -33.21L303.51 -8.21L303.51 41.79L260.2 66.79L216.9 41.79L216.9 -8.21zM260.2 266.79L303.51 291.79L303.51 341.79L260.2 366.79L216.9 341.79L216.9 291.79zM303.51 641.79L346.81 666.79L346.81 716.79L303.51 741.79L260.2 716.79L260.2 666.79zM303.51 791.79L346.81 816.79L346.81 866.79L303.51 891.79L260.2 866.79L260.2 816.79zM260.2 866.79L303.51 891.79L303.51 941.79L260.2 966.79L216.9 941.79L216.9 891.79zM303.51 941.79L346.81 966.79L346.81 1016.79L303.51 1041.79L260.2 1016.79L260.2 966.79zM346.81 -33.21L390.11 -8.21L390.11 41.79L346.81 66.79L303.51 41.79L303.51 -8.21zM346.81 116.79L390.11 141.79L390.11 191.79L346.81 216.79L303.51 191.79L303.51 141.79zM346.81 266.79L390.11 291.79L390.11 341.79L346.81 366.79L303.51 341.79L303.51 291.79zM346.81 416.79L390.11 441.79L390.11 491.79L346.81 516.79L303.51 491.79L303.51 441.79zM390.11 641.79L433.42 666.79L433.42 716.79L390.11 741.79L346.81 716.79L346.81 666.79zM346.81 716.79L390.11 741.79L390.11 791.79L346.81 816.79L303.51 791.79L303.51 741.79zM390.11 941.79L433.42 966.79L433.42 1016.79L390.11 1041.79L346.81 1016.79L346.81 966.79zM346.81 1016.79L390.11 1041.79L390.11 1091.79L346.81 1116.79L303.51 1091.79L303.51 1041.79zM433.42 -33.21L476.72 -8.21L476.72 41.79L433.42 66.79L390.11 41.79L390.11 -8.21zM433.42 416.79L476.72 441.79L476.72 491.79L433.42 516.79L390.11 491.79L390.11 441.79zM476.72 641.79L520.02 666.79L520.02 716.79L476.72 741.79L433.42 716.79L433.42 666.79zM476.72 791.79L520.02 816.79L520.02 866.79L476.72 891.79L433.42 866.79L433.42 816.79zM520.02 -33.21L563.32 -8.21L563.32 41.79L520.02 66.79L476.72 41.79L476.72 -8.21zM520.02 116.79L563.32 141.79L563.32 191.79L520.02 216.79L476.72 191.79L476.72 141.79zM563.32 191.79L606.63 216.79L606.63 266.79L563.32 291.79L520.02 266.79L520.02 216.79zM520.02 266.79L563.32 291.79L563.32 341.79L520.02 366.79L476.72 341.79L476.72 291.79zM563.32 341.79L606.63 366.79L606.63 416.79L563.32 441.79L520.02 416.79L520.02 366.79zM563.32 491.79L606.63 516.79L606.63 566.79L563.32 591.79L520.02 566.79L520.02 516.79zM563.32 641.79L606.63 666.79L606.63 716.79L563.32 741.79L520.02 716.79L520.02 666.79zM520.02 716.79L563.32 741.79L563.32 791.79L520.02 816.79L476.72 791.79L476.72 741.79zM520.02 866.79L563.32 891.79L563.32 941.79L520.02 966.79L476.72 941.79L476.72 891.79zM520.02 1016.79L563.32 1041.79L563.32 1091.79L520.02 1116.79L476.72 1091.79L476.72 1041.79zM606.63 -33.21L649.93 -8.21L649.93 41.79L606.63 66.79L563.32 41.79L563.32 -8.21zM606.63 566.79L649.93 591.79L649.93 641.79L606.63 666.79L563.32 641.79L563.32 591.79zM649.93 791.79L693.23 816.79L693.23 866.79L649.93 891.79L606.63 866.79L606.63 816.79zM606.63 866.79L649.93 891.79L649.93 941.79L606.63 966.79L563.32 941.79L563.32 891.79zM606.63 1016.79L649.93 1041.79L649.93 1091.79L606.63 1116.79L563.32 1091.79L563.32 1041.79zM693.23 -33.21L736.53 -8.21L736.53 41.79L693.23 66.79L649.93 41.79L649.93 -8.21zM736.53 41.79L779.84 66.79L779.84 116.79L736.53 141.79L693.23 116.79L693.23 66.79zM693.23 116.79L736.53 141.79L736.53 191.79L693.23 216.79L649.93 191.79L649.93 141.79zM693.23 266.79L736.53 291.79L736.53 341.79L693.23 366.79L649.93 341.79L649.93 291.79zM736.53 341.79L779.84 366.79L779.84 416.79L736.53 441.79L693.23 416.79L693.23 366.79zM736.53 491.79L779.84 516.79L779.84 566.79L736.53 591.79L693.23 566.79L693.23 516.79zM693.23 566.79L736.53 591.79L736.53 641.79L693.23 666.79L649.93 641.79L649.93 591.79zM736.53 641.79L779.84 666.79L779.84 716.79L736.53 741.79L693.23 716.79L693.23 666.79zM736.53 941.79L779.84 966.79L779.84 1016.79L736.53 1041.79L693.23 1016.79L693.23 966.79zM693.23 1016.79L736.53 1041.79L736.53 1091.79L693.23 1116.79L649.93 1091.79L649.93 1041.79zM823.14 41.79L866.44 66.79L866.44 116.79L823.14 141.79L779.84 116.79L779.84 66.79zM823.14 191.79L866.44 216.79L866.44 266.79L823.14 291.79L779.84 266.79L779.84 216.79zM779.84 266.79L823.14 291.79L823.14 341.79L779.84 366.79L736.53 341.79L736.53 291.79zM779.84 416.79L823.14 441.79L823.14 491.79L779.84 516.79L736.53 491.79L736.53 441.79zM779.84 566.79L823.14 591.79L823.14 641.79L779.84 666.79L736.53 641.79L736.53 591.79zM823.14 791.79L866.44 816.79L866.44 866.79L823.14 891.79L779.84 866.79L779.84 816.79zM779.84 866.79L823.14 891.79L823.14 941.79L779.84 966.79L736.53 941.79L736.53 891.79zM823.14 941.79L866.44 966.79L866.44 1016.79L823.14 1041.79L779.84 1016.79L779.84 966.79zM779.84 1016.79L823.14 1041.79L823.14 1091.79L779.84 1116.79L736.53 1091.79L736.53 1041.79zM866.44 -33.21L909.74 -8.21L909.74 41.79L866.44 66.79L823.14 41.79L823.14 -8.21zM909.74 41.79L953.05 66.79L953.05 116.79L909.74 141.79L866.44 116.79L866.44 66.79zM909.74 191.79L953.05 216.79L953.05 266.79L909.74 291.79L866.44 266.79L866.44 216.79zM866.44 266.79L909.74 291.79L909.74 341.79L866.44 366.79L823.14 341.79L823.14 291.79zM909.74 491.79L953.05 516.79L953.05 566.79L909.74 591.79L866.44 566.79L866.44 516.79zM866.44 566.79L909.74 591.79L909.74 641.79L866.44 666.79L823.14 641.79L823.14 591.79zM909.74 791.79L953.05 816.79L953.05 866.79L909.74 891.79L866.44 866.79L866.44 816.79zM953.05 -33.21L996.35 -8.21L996.35 41.79L953.05 66.79L909.74 41.79L909.74 -8.21zM953.05 416.79L996.35 441.79L996.35 491.79L953.05 516.79L909.74 491.79L909.74 441.79zM953.05 566.79L996.35 591.79L996.35 641.79L953.05 666.79L909.74 641.79L909.74 591.79zM953.05 716.79L996.35 741.79L996.35 791.79L953.05 816.79L909.74 791.79L909.74 741.79zM996.35 791.79L1039.65 816.79L1039.65 866.79L996.35 891.79L953.05 866.79L953.05 816.79zM953.05 866.79L996.35 891.79L996.35 941.79L953.05 966.79L909.74 941.79L909.74 891.79zM953.05 1016.79L996.35 1041.79L996.35 1091.79L953.05 1116.79L909.74 1091.79L909.74 1041.79zM1082.95 41.79L1126.26 66.79L1126.26 116.79L1082.95 141.79L1039.65 116.79L1039.65 66.79zM1039.65 116.79L1082.95 141.79L1082.95 191.79L1039.65 216.79L996.35 191.79L996.35 141.79zM1082.95 191.79L1126.26 216.79L1126.26 266.79L1082.95 291.79L1039.65 266.79L1039.65 216.79zM1039.65 716.79L1082.95 741.79L1082.95 791.79L1039.65 816.79L996.35 791.79L996.35 741.79zM1039.65 866.79L1082.95 891.79L1082.95 941.79L1039.65 966.79L996.35 941.79L996.35 891.79zM1082.95 941.79L1126.26 966.79L1126.26 1016.79L1082.95 1041.79L1039.65 1016.79L1039.65 966.79zM1039.65 1016.79L1082.95 1041.79L1082.95 1091.79L1039.65 1116.79L996.35 1091.79L996.35 1041.79zM1169.56 191.79L1212.86 216.79L1212.86 266.79L1169.56 291.79L1126.26 266.79L1126.26 216.79zM1126.26 266.79L1169.56 291.79L1169.56 341.79L1126.26 366.79L1082.95 341.79L1082.95 291.79zM1169.56 341.79L1212.86 366.79L1212.86 416.79L1169.56 441.79L1126.26 416.79L1126.26 366.79zM1126.26 416.79L1169.56 441.79L1169.56 491.79L1126.26 516.79L1082.95 491.79L1082.95 441.79zM1169.56 491.79L1212.86 516.79L1212.86 566.79L1169.56 591.79L1126.26 566.79L1126.26 516.79zM1126.26 566.79L1169.56 591.79L1169.56 641.79L1126.26 666.79L1082.95 641.79L1082.95 591.79zM1169.56 791.79L1212.86 816.79L1212.86 866.79L1169.56 891.79L1126.26 866.79L1126.26 816.79zM1212.86 116.79L1256.16 141.79L1256.16 191.79L1212.86 216.79L1169.56 191.79L1169.56 141.79zM1212.86 266.79L1256.16 291.79L1256.16 341.79L1212.86 366.79L1169.56 341.79L1169.56 291.79zM1256.16 491.79L1299.47 516.79L1299.47 566.79L1256.16 591.79L1212.86 566.79L1212.86 516.79zM1212.86 566.79L1256.16 591.79L1256.16 641.79L1212.86 666.79L1169.56 641.79L1169.56 591.79zM1256.16 641.79L1299.47 666.79L1299.47 716.79L1256.16 741.79L1212.86 716.79L1212.86 666.79zM1256.16 791.79L1299.47 816.79L1299.47 866.79L1256.16 891.79L1212.86 866.79L1212.86 816.79zM1212.86 866.79L1256.16 891.79L1256.16 941.79L1212.86 966.79L1169.56 941.79L1169.56 891.79zM1256.16 941.79L1299.47 966.79L1299.47 1016.79L1256.16 1041.79L1212.86 1016.79L1212.86 966.79zM1212.86 1016.79L1256.16 1041.79L1256.16 1091.79L1212.86 1116.79L1169.56 1091.79L1169.56 1041.79zM1342.77 191.79L1386.07 216.79L1386.07 266.79L1342.77 291.79L1299.47 266.79L1299.47 216.79zM1299.47 266.79L1342.77 291.79L1342.77 341.79L1299.47 366.79L1256.16 341.79L1256.16 291.79zM1342.77 641.79L1386.07 666.79L1386.07 716.79L1342.77 741.79L1299.47 716.79L1299.47 666.79zM1299.47 716.79L1342.77 741.79L1342.77 791.79L1299.47 816.79L1256.16 791.79L1256.16 741.79zM1342.77 941.79L1386.07 966.79L1386.07 1016.79L1342.77 1041.79L1299.47 1016.79L1299.47 966.79zM1299.47 1016.79L1342.77 1041.79L1342.77 1091.79L1299.47 1116.79L1256.16 1091.79L1256.16 1041.79zM1386.07 -33.21L1429.37 -8.21L1429.37 41.79L1386.07 66.79L1342.77 41.79L1342.77 -8.21zM1429.37 41.79L1472.68 66.79L1472.68 116.79L1429.37 141.79L1386.07 116.79L1386.07 66.79zM1429.37 641.79L1472.68 666.79L1472.68 716.79L1429.37 741.79L1386.07 716.79L1386.07 666.79zM1386.07 716.79L1429.37 741.79L1429.37 791.79L1386.07 816.79L1342.77 791.79L1342.77 741.79zM1429.37 791.79L1472.68 816.79L1472.68 866.79L1429.37 891.79L1386.07 866.79L1386.07 816.79zM1429.37 941.79L1472.68 966.79L1472.68 1016.79L1429.37 1041.79L1386.07 1016.79L1386.07 966.79zM1472.68 -33.21L1515.98 -8.21L1515.98 41.79L1472.68 66.79L1429.37 41.79L1429.37 -8.21zM1515.98 41.79L1559.28 66.79L1559.28 116.79L1515.98 141.79L1472.68 116.79L1472.68 66.79zM1472.68 116.79L1515.98 141.79L1515.98 191.79L1472.68 216.79L1429.37 191.79L1429.37 141.79zM1515.98 191.79L1559.28 216.79L1559.28 266.79L1515.98 291.79L1472.68 266.79L1472.68 216.79zM1472.68 266.79L1515.98 291.79L1515.98 341.79L1472.68 366.79L1429.37 341.79L1429.37 291.79zM1472.68 566.79L1515.98 591.79L1515.98 641.79L1472.68 666.79L1429.37 641.79L1429.37 591.79zM1472.68 716.79L1515.98 741.79L1515.98 791.79L1472.68 816.79L1429.37 791.79L1429.37 741.79zM1515.98 791.79L1559.28 816.79L1559.28 866.79L1515.98 891.79L1472.68 866.79L1472.68 816.79zM1515.98 941.79L1559.28 966.79L1559.28 1016.79L1515.98 1041.79L1472.68 1016.79L1472.68 966.79zM1602.58 491.79L1645.89 516.79L1645.89 566.79L1602.58 591.79L1559.28 566.79L1559.28 516.79zM1559.28 566.79L1602.58 591.79L1602.58 641.79L1559.28 666.79L1515.98 641.79L1515.98 591.79zM1559.28 1016.79L1602.58 1041.79L1602.58 1091.79L1559.28 1116.79L1515.98 1091.79L1515.98 1041.79zM1645.89 -33.21L1689.19 -8.21L1689.19 41.79L1645.89 66.79L1602.58 41.79L1602.58 -8.21zM1689.19 491.79L1732.49 516.79L1732.49 566.79L1689.19 591.79L1645.89 566.79L1645.89 516.79zM1689.19 791.79L1732.49 816.79L1732.49 866.79L1689.19 891.79L1645.89 866.79L1645.89 816.79zM1645.89 866.79L1689.19 891.79L1689.19 941.79L1645.89 966.79L1602.58 941.79L1602.58 891.79zM1689.19 941.79L1732.49 966.79L1732.49 1016.79L1689.19 1041.79L1645.89 1016.79L1645.89 966.79zM1775.79 41.79L1819.1 66.79L1819.1 116.79L1775.79 141.79L1732.49 116.79L1732.49 66.79zM1732.49 116.79L1775.79 141.79L1775.79 191.79L1732.49 216.79L1689.19 191.79L1689.19 141.79zM1775.79 191.79L1819.1 216.79L1819.1 266.79L1775.79 291.79L1732.49 266.79L1732.49 216.79zM1732.49 566.79L1775.79 591.79L1775.79 641.79L1732.49 666.79L1689.19 641.79L1689.19 591.79zM1732.49 716.79L1775.79 741.79L1775.79 791.79L1732.49 816.79L1689.19 791.79L1689.19 741.79zM1732.49 866.79L1775.79 891.79L1775.79 941.79L1732.49 966.79L1689.19 941.79L1689.19 891.79zM1819.1 -33.21L1862.4 -8.21L1862.4 41.79L1819.1 66.79L1775.79 41.79L1775.79 -8.21zM1862.4 41.79L1905.7 66.79L1905.7 116.79L1862.4 141.79L1819.1 116.79L1819.1 66.79zM1819.1 116.79L1862.4 141.79L1862.4 191.79L1819.1 216.79L1775.79 191.79L1775.79 141.79zM1862.4 191.79L1905.7 216.79L1905.7 266.79L1862.4 291.79L1819.1 266.79L1819.1 216.79zM1819.1 266.79L1862.4 291.79L1862.4 341.79L1819.1 366.79L1775.79 341.79L1775.79 291.79zM1862.4 341.79L1905.7 366.79L1905.7 416.79L1862.4 441.79L1819.1 416.79L1819.1 366.79zM1819.1 416.79L1862.4 441.79L1862.4 491.79L1819.1 516.79L1775.79 491.79L1775.79 441.79zM1862.4 491.79L1905.7 516.79L1905.7 566.79L1862.4 591.79L1819.1 566.79L1819.1 516.79zM1862.4 641.79L1905.7 666.79L1905.7 716.79L1862.4 741.79L1819.1 716.79L1819.1 666.79zM1819.1 716.79L1862.4 741.79L1862.4 791.79L1819.1 816.79L1775.79 791.79L1775.79 741.79zM1819.1 866.79L1862.4 891.79L1862.4 941.79L1819.1 966.79L1775.79 941.79L1775.79 891.79zM1862.4 941.79L1905.7 966.79L1905.7 1016.79L1862.4 1041.79L1819.1 1016.79L1819.1 966.79zM1949 191.79L1992.31 216.79L1992.31 266.79L1949 291.79L1905.7 266.79L1905.7 216.79zM1905.7 266.79L1949 291.79L1949 341.79L1905.7 366.79L1862.4 341.79L1862.4 291.79zM1949 341.79L1992.31 366.79L1992.31 416.79L1949 441.79L1905.7 416.79L1905.7 366.79zM1905.7 566.79L1949 591.79L1949 641.79L1905.7 666.79L1862.4 641.79L1862.4 591.79zM1949 641.79L1992.31 666.79L1992.31 716.79L1949 741.79L1905.7 716.79L1905.7 666.79zM1905.7 866.79L1949 891.79L1949 941.79L1905.7 966.79L1862.4 941.79L1862.4 891.79zM1905.7 1016.79L1949 1041.79L1949 1091.79L1905.7 1116.79L1862.4 1091.79L1862.4 1041.79z" stroke="rgba(6, 80, 156, 0.93)" stroke-width="2"></path></g><defs><mask id="SvgjsMask1008"><rect width="1920" height="1080" fill="#ffffff"></rect></mask></defs></svg>